{
	"asset":{
		"version":"2.0",
		"generator":"Houdini GLTF 2.0 Exporter"
	},
	"accessors":[
		{
			"bufferView":0,
			"componentType":5123,
			"count":1512,
			"type":"SCALAR",
			"min":[0
			],
			"max":[335
			]
		},
		{
			"bufferView":1,
			"componentType":5126,
			"count":336,
			"type":"VEC3",
			"min":[-1.08500004,-1.0649941,-1.08500004
			],
			"max":[1.08500004,1.0649941,1.08500004
			]
		},
		{
			"bufferView":2,
			"componentType":5126,
			"count":336,
			"type":"VEC3",
			"min":[0.063411355,0.0203852654,0.0260432959
			],
			"max":[0.982716441,0.987793684,0.974120021
			]
		}
	],
	"buffers":[
		{
			"uri":"boxs_data.bin",
			"byteLength":11088,
			"name":"main_buffer"
		}
	],
	"bufferViews":[
		{
			"buffer":0,
			"byteLength":3024,
			"target":34963
		},
		{
			"buffer":0,
			"byteOffset":3024,
			"byteLength":4032,
			"target":34962
		},
		{
			"buffer":0,
			"byteOffset":7056,
			"byteLength":4032,
			"target":34962
		}
	],
	"nodes":[
		{
			"name":"geo1",
			"mesh":0
		}
	],
	"meshes":[
		{
			"primitives":[
				{
					"attributes":{
						"COLOR_0":2,
						"POSITION":1
					},
					"indices":0
				}
			],
			"name":"copytopoints1"
		}
	],
	"scenes":[
		{
			"nodes":[0
			]
		}
	],
	"scene":0
}
