{
    "asset" : {
        "generator" : "Khronos glTF Blender I/O v1.7.33",
        "version" : "2.0"
    },
    "scene" : 0,
    "scenes" : [
        {
            "name" : "Scene",
            "nodes" : [
                0
            ]
        }
    ],
    "nodes" : [
        {
            "mesh" : 0,
            "name" : "monkey"
        }
    ],
    "meshes" : [
        {
            "name" : "\u7334\u5934",
            "primitives" : [
                {
                    "attributes" : {
                        "POSITION" : 0,
                        "NORMAL" : 1,
                        "TEXCOORD_0" : 2
                    },
                    "indices" : 3
                }
            ]
        }
    ],
    "accessors" : [
        {
            "bufferView" : 0,
            "componentType" : 5126,
            "count" : 1998,
            "max" : [
                1.3671875,
                1.0869377851486206,
                0.8515625
            ],
            "min" : [
                -1.3671875,
                -0.984375,
                -0.8515625
            ],
            "type" : "VEC3"
        },
        {
            "bufferView" : 1,
            "componentType" : 5126,
            "count" : 1998,
            "type" : "VEC3"
        },
        {
            "bufferView" : 2,
            "componentType" : 5126,
            "count" : 1998,
            "type" : "VEC2"
        },
        {
            "bufferView" : 3,
            "componentType" : 5123,
            "count" : 2952,
            "type" : "SCALAR"
        }
    ],
    "bufferViews" : [
        {
            "buffer" : 0,
            "byteLength" : 23976,
            "byteOffset" : 0
        },
        {
            "buffer" : 0,
            "byteLength" : 23976,
            "byteOffset" : 23976
        },
        {
            "buffer" : 0,
            "byteLength" : 15984,
            "byteOffset" : 47952
        },
        {
            "buffer" : 0,
            "byteLength" : 5904,
            "byteOffset" : 63936
        }
    ],
    "buffers" : [
        {
            "byteLength" : 69840,
            "uri" : "monkey.bin"
        }
    ]
}
